# xmcd CD database file
#
# Track frame offsets:
#	150
#	15688
#	39856
#	57531
#	79545
#	108705
#	127916
#	145564
#	168521
#	196304
#
# Disc length: 2895 seconds
#
# Revision: 0
# Processed by: cddbd v1.5.2PL0 Copyright (c) Steve Scherf et al.
# Submitted via: CDex 1.50Beta7
#
DISCID=7c0b4d0a
DTITLE=Prelude - Breezing Up
DYEAR=2007
DGENRE=Jazz
TTITLE0=Already Started
TTITLE1=Breezing Up
TTITLE2=Promise
TTITLE3=Children In Heaven
TTITLE4=Legend
TTITLE5=Changing Faces
TTITLE6=The Final Hour
TTITLE7=This I Dig Of You
TTITLE8=Funky Shake
TTITLE9=12th Street Rag
EXTD=YEAR: 2007
EXTT0=
EXTT1=
EXTT2=
EXTT3=
EXTT4=
EXTT5=
EXTT6=
EXTT7=
EXTT8=
EXTT9=
PLAYORDER=
